HIERARCHY
ROOT base
{
	OFFSET 0.0 0.0 0.0
	CHANNELS 6 Xposition Yposition Zposition Zrotation Yrotation Xrotation
	JOINT root
	{
		OFFSET 0 0 0
		CHANNELS 6 Xposition Yposition Zposition Zrotation Yrotation Xrotation
		JOINT chest
		{
			OFFSET 0 4.72302 0
			CHANNELS 3 Zrotation Yrotation Xrotation
			JOINT neck
			{
				OFFSET 0 4.47788 0
				CHANNELS 3 Zrotation Yrotation Xrotation
				End Site
				{
					OFFSET 0.0 0.0 0.0
				}
			}
			JOINT right_shoulder
			{
				OFFSET -0.481 4.87 3.6622
				CHANNELS 3 Zrotation Yrotation Xrotation
				JOINT right_elbow
				{
					OFFSET 0 -5.49576 0
					CHANNELS 3 Zrotation Yrotation Xrotation
					JOINT right_wrist
					{
						OFFSET 0 -5.17894 0
						CHANNELS 3 Zrotation Yrotation Xrotation
						End Site
						{
							OFFSET 0.0 0.0 0.0
						}
					}
				}
			}
			JOINT left_shoulder
			{
				OFFSET -0.481 4.87 -3.6622
				CHANNELS 3 Zrotation Yrotation Xrotation
				JOINT left_elbow
				{
					OFFSET 0 -5.49576 0
					CHANNELS 3 Zrotation Yrotation Xrotation
					JOINT left_wrist
					{
						OFFSET 0 -5.17894 0
						CHANNELS 3 Zrotation Yrotation Xrotation
						End Site
						{
							OFFSET 0.0 0.0 0.0
						}
					}
				}
			}
		}
		JOINT right_hip
		{
			OFFSET 0 0 1.69774
			CHANNELS 3 Zrotation Yrotation Xrotation
			JOINT right_knee
			{
				OFFSET 0 -8.43092 0
				CHANNELS 3 Zrotation Yrotation Xrotation
				JOINT right_ankle
				{
					OFFSET 0 -8.1974 0
					CHANNELS 3 Zrotation Yrotation Xrotation
					End Site
					{
						OFFSET 0.0 0.0 0.0
					}
				}
			}
		}
		JOINT left_hip
		{
			OFFSET 0 0 -1.69774
			CHANNELS 3 Zrotation Yrotation Xrotation
			JOINT left_knee
			{
				OFFSET 0 -8.43092 0
				CHANNELS 3 Zrotation Yrotation Xrotation
				JOINT left_ankle
				{
					OFFSET 0 -8.1974 0
					CHANNELS 3 Zrotation Yrotation Xrotation
					End Site
					{
						OFFSET 0.0 0.0 0.0
					}
				}
			}
		}
	}
	JOINT red_arrow
	{
		OFFSET 0 0 0
		CHANNELS 3 Zrotation Yrotation Xrotation
		End Site
		{
			OFFSET 0.0 0.0 0.0
		}
	}
	JOINT blue_arrow
	{
		OFFSET 0 0 0
		CHANNELS 3 Zrotation Yrotation Xrotation
		End Site
		{
			OFFSET 0.0 0.0 0.0
		}
	}
}
MOTION
Frames: 11
Frame Time: 0.0333333333333333
0 18.08466 0 0 0 0 0 0 0 0 -90 0 0 0 0 0 0 0 0 0 -90 0 0 0 0 0 0 0 0 90 0 0 0 0 0 0 0 0 0 0 0 0 0 0 0 0 0 0 0 0 0 0 0 0 0 0 0 0 0 0
1.92875679731369 0 -0.0839844256639481 0 -5.77444213694777 0 0 15.91343075037 0 -23.5727331434491 -2.98177001387205E-15 -8.64200138595281 -4.74452200919337 3.50641066989844 6.88454553287208 1.39117755214769 -1.33553374328917 1.5181540129337 -5.48215932471131 15.6768317817856 -30.2314063523061 80.620438396569 0 0 0 0 0 -14.5328505768648 -16.5661982378645 34.9060667330972 72.7166800928136 0 0 0 0 0 50.4258126516302 -2.0162603820663 8.94396451472613 -48.3954692886654 0 0 21.7019685945159 3.65497816281406 -0.974804436117077 24.1761944544166 5.85134479302302 12.4607015291348 -84.3576515330223 0 0 -3.56914995410572 4.11838262426999 -17.6557443779164 0 0 0 0 0 0
3.88415858745575 0 -0.330975405871868 0 -5.95994712267488 0 0 16.0512272119522 0 -24.1928751961614 -3.21571422249399 -6.35918431086172 -5.43838885306803 8.34015726756492 1.82609982023285 2.89442580029494 -2.22086329153005 2.10422290255156 9.76365296121576 22.1963658547611 -31.3179925272611 84.3568250801328 0 0 0 0 0 -26.3784633240211 -11.5970494476102 35.1454108221554 63.2003551071533 0 0 0 0 0 43.0976223698977 -0.0244780786011437 7.23482952351556 -46.1018029729159 0 0 27.537552201919 7.55597629893901 0.259196662464705 40.2355470352856 3.2751279114262 13.4433342046181 -86.6621163778496 0 0 0.92101039017371 6.72610028842409 -18.227709702124 0 0 0 0 0 0
6.00661227107048 0 -0.685335238277912 0 -6.17083773497225 0 0 16.2348093509674 0 -23.8625217555339 -3.66538222076108 -3.39264596078879 -7.45597881324463 11.3119125830553 -3.97231069379105 5.39662161191657 -2.90740264320653 2.30651152472296 26.5323894482931 29.7729200777523 -32.8603020924659 89.6809370475902 0 0 0 0 0 -40.8627765579649 -7.94754942353983 35.288558774165 51.1368920705497 0 0 0 0 0 31.6568594175278 2.59756623021625 2.59954268089149 -38.5638627709173 0 0 31.3761016648719 8.83097382455378 2.38390355295086 57.2611977162399 -0.447863558379822 11.5800706068364 -87.5722322545646 0 0 6.8543557503186 10.0050515734409 -18.8766729008959 0 0 0 0 0 0
8.22066803574562 0 -1.07170472219586 0 -6.20584485038164 0 0 16.3104067564011 0 -23.9073823748685 -0.608072240941075 -0.639003440184729 -9.32848832660982 11.9602274400699 -9.39327384005913 7.89090269570871 -3.22703597267023 1.90745674536623 41.7513806661915 36.5011193878884 -34.3433421658527 96.1099004151889 0 0 0 0 0 -56.4550598886594 -3.86357271269391 35.2224417214387 44.054146410692 0 0 0 0 0 18.2302284162097 3.16248114420257 -3.28692329326679 -27.5043436272045 0 0 31.0132635444512 6.90903820669653 3.50195459635858 74.2053328785414 -3.5488000942356 6.32501319373965 -82.6353442017227 0 0 11.7842019822726 13.4465691689224 -20.7399430676088 0 0 0 0 0 0
10.439813798666 0 -1.45199750140309 0 -5.99877473073714 0 0 16.3699119210243 0 -24.9845885969875 3.56716258216899 0.982096687604812 -10.4794604719967 11.5737542254678 -13.2868153432651 8.87164502754727 -3.00020924535162 0.926766701203467 50.7024173069767 39.3225675119237 -35.8707437780376 102.335126070035 0 0 0 0 0 -68.3574783700908 0.849662362460356 34.0473849664856 42.7713480921044 0 0 0 0 0 7.10634721677031 2.18799224667594 -7.10496129557539 -18.3382707421824 0 0 20.7844278977157 3.6429827140497 2.84143514537122 86.8527428689386 -4.21379395953151 0.665220095526645 -72.0707627633839 0 0 14.269219149834 15.8886826446873 -23.2910986006784 0 0 0 0 0 0
12.6640111625195 0 -1.82585730999708 0 -5.5634141973407 0 0 16.4804493188858 0 -26.5131704268934 7.41214501260744 1.51767158870111 -11.0973804451426 10.1982328141807 -15.061814033888 8.17445109789451 -2.33438618565926 -0.258497509282275 52.3064020623688 38.3206030220726 -38.1120766376998 106.563627883298 0 0 0 0 0 -74.5475963840331 4.63632891996405 32.6227108748342 45.3221710301048 0 0 0 0 0 -0.182166845599923 -0.292146593807137 -8.66628816797739 -12.5531611331105 0 0 0.114012357133096 1.87550293432216 2.64263903038075 92.7016268573014 -3.20190052450114 -3.91215318941931 -60.8095020297037 0 0 15.9820310907767 16.0138796144437 -24.0452816752811 0 0 0 0 0 0
14.9590671777725 0 -2.22800100445747 0 -4.97800570315987 0 0 16.5349673032761 0 -27.2380524370553 9.91533725313322 1.90519325187975 -11.248400705816 8.36885705815243 -15.1943547591285 6.87244877945508 -1.50117598023184 -1.16434921750125 49.6539301581168 35.7223612481555 -39.7255673673227 107.806216878242 0 0 0 0 0 -75.7089536088701 7.54459393469631 31.165269581451 49.8107664469621 0 0 0 0 0 -5.2128699987265 -1.47739921597136 -9.36840632118237 -9.43122680501751 0 0 -21.8830762480067 -0.415435693411086 8.36087267283517 91.9935235333002 -1.45902756640462 -6.97207108886561 -51.4425430359078 0 0 17.5759087772319 13.9336642063195 -22.7011032057557 0 0 0 0 0 0
17.3762250602245 0 -2.65464117079973 0 -4.34234558949816 0 0 16.4567557215691 0 -26.5109948851612 10.8393517514984 2.27194968909487 -10.8450848871657 6.8295841518336 -14.0374487908454 5.63288674055381 -0.778853848743591 -1.40840810214131 43.3576904449857 32.9101906884408 -39.9728257100393 105.80883050831 0 0 0 0 0 -72.2844610656739 9.45946682582009 29.7502876234509 55.2907638218467 0 0 0 0 0 -7.57499960538893 -5.33375175563568 -10.1295497343534 -12.4624340228179 0 0 -33.4057314169239 -0.263653925990545 14.9946569461833 85.7035407754524 -0.0466015806995632 -8.43407786981221 -43.6924264224373 0 0 16.8394604865235 11.5530843272878 -22.0949039140766 0 0 0 0 0 0
19.8983024835587 0 -3.08515898734331 0 -3.73507751098062 0 0 16.2160174608231 0 -24.8347774910945 10.4959546307883 2.62421813340245 -9.69842054077722 5.67383017943577 -12.3551800030644 4.78420201852154 -0.22662134891452 -1.29104388644825 34.10292209643 30.5923052536081 -38.9586979939982 101.403706833299 0 0 0 0 0 -65.2724267892611 10.2908833104436 28.7722301885659 61.2289507768233 0 0 0 0 0 -7.46376946618296 -7.93423811850212 -11.3230692619216 -22.5705274519418 0 0 -35.7316706834978 -1.21104845350355 16.3951484495448 75.7255239335054 1.03704911068975 -8.46201033463429 -37.4579117103197 0 0 14.8062451737385 9.76805603783781 -21.7645277474135 0 0 0 0 0 0
22.4685258150101 0 -3.48343879282475 0 -3.21537143449034 0 0 15.7723607778549 0 -22.6879865568825 9.12369777520837 2.6944950193581 -8.45724038014329 4.6415970353308 -10.5083081827195 4.51692735823304 0.0959055023106743 -0.983313745625703 23.7819945939915 28.909173594072 -36.7111451334743 95.4190336108313 0 0 0 0 0 -56.2099870413401 9.78061715724411 28.3409300997132 66.6944408299109 0 0 0 0 0 -6.06018260323394 -6.9815870725554 -12.3995672353422 -36.2673038700543 0 0 -34.2985293705243 -2.3023195814883 18.0535332863476 64.2842592012506 2.33060883356173 -6.92063703255499 -33.499868312716 0 0 11.3901817272972 8.54828935001142 -21.8563961769536 0 0 0 0 0 0
